<svg width="209" height="45" viewBox="0 0 209 45" fill="none" xmlns="http://www.w3.org/2000/svg">
<g clip-path="url(#clip0_1_18)">
<path d="M70.2039 1.29393C61.9558 1.29393 54.8927 6.27796 51.7167 13.4665C48.9199 11.0703 45.3173 9.63259 41.3829 9.63259C40.9562 9.63259 40.577 9.63259 40.1504 9.68051L46.0284 0.479233H38.3965L28.7736 15.4792C26.4035 12.4601 22.9905 10.3514 19.1034 9.63259L28.6314 0H6.02019V7.28435H11.2345L4.7403 13.8498L9.81243 18.9776L9.90724 18.8818L10.0494 19.0256C11.7086 17.492 13.8891 16.6294 16.117 16.6294C21.0469 16.6294 25.0762 20.7029 25.0762 25.6869C25.0762 30.6709 21.0469 34.7444 16.117 34.7444C11.1871 34.7444 7.20526 30.6709 7.20526 25.6869H0C0 34.6965 7.25267 42.0288 16.1644 42.0288C21.2366 42.0288 25.7399 39.6326 28.7262 35.9425C31.6652 39.7284 36.2633 42.1725 41.3829 42.1725C46.9764 42.1725 51.9063 39.2971 54.7979 34.9361C58.4953 39.393 64.0415 42.1725 70.2513 42.1725C81.391 42.1725 90.4924 33.0192 90.4924 21.7093C90.445 10.4473 81.3436 1.29393 70.2039 1.29393ZM41.3829 34.8882C36.5003 34.8882 32.4711 30.8626 32.4711 25.8786C32.4711 20.8946 36.4529 16.869 41.3829 16.869C46.3128 16.869 50.2946 20.8946 50.2946 25.8786C50.2946 30.8626 46.2654 34.8882 41.3829 34.8882ZM70.2039 34.8882C63.046 34.8882 57.1681 28.9936 57.1681 21.7093C57.1681 14.4249 62.9986 8.53035 70.2039 8.53035C77.4092 8.53035 83.2397 14.4249 83.2397 21.7093C83.2397 28.9936 77.4092 34.8882 70.2039 34.8882Z" fill="#FFCB66"/>
<path d="M118.113 1.15027V18.211H97.4924V1.15027H102.043V14.1854H105.551V1.15027H110.007V14.1854H113.515V1.15027H118.113Z" fill="white"/>
<path d="M121.81 1.15027H126.313V6.90107H126.408L130.485 1.15027H136.221L130.248 8.43461L136.41 18.211H130.864L127.262 12.0289L126.313 13.2269V18.211H121.81V1.15027Z" fill="white"/>
<path d="M136.742 9.68069C136.742 4.45704 140.345 0.862793 145.512 0.862793C150.679 0.862793 154.281 4.40912 154.281 9.68069C154.281 14.9043 150.631 18.4507 145.512 18.4507C140.345 18.4986 136.742 14.9043 136.742 9.68069ZM149.541 9.68069C149.541 7.18867 147.882 5.17589 145.512 5.17589C143.142 5.17589 141.482 7.18867 141.482 9.68069C141.482 12.2206 143.142 14.1855 145.512 14.1855C147.882 14.2334 149.541 12.2206 149.541 9.68069Z" fill="white"/>
<path d="M171.109 1.15027V18.211H166.559V5.27167H163.715C163.525 8.48254 163.43 11.31 162.956 13.4666C162.245 16.5816 160.776 18.4506 157.41 18.4506C156.604 18.4506 155.703 18.3068 155.182 18.1151L155.466 14.2333C155.846 14.3292 156.177 14.425 156.462 14.425C157.647 14.425 158.311 13.2269 158.69 11.31C159.211 8.818 159.259 5.07998 159.353 1.19819H171.109V1.15027Z" fill="white"/>
<path d="M179.642 1.15027H183.956L190.071 18.211H185.378L184.524 15.4314H179.073L178.22 18.211H173.479L179.642 1.15027ZM183.339 11.6455L181.822 6.70937H181.775L180.258 11.6455H183.339Z" fill="white"/>
<path d="M97.4924 24.6327H111.002V41.6934H106.452V28.7541H102.091V41.6934H97.5398V24.6327H97.4924Z" fill="white"/>
<path d="M114.652 24.6327H121.241C125.46 24.6327 127.404 27.1726 127.404 30.7189C127.404 34.6007 124.891 36.5177 120.957 36.5177H119.061V41.6934H114.7V24.6327H114.652ZM120.436 32.54C121.905 32.54 122.711 31.8691 122.711 30.5752C122.711 29.5209 122.047 28.6103 120.436 28.6103H119.061V32.4921H120.436V32.54Z" fill="white"/>
<path d="M129.679 33.1631C129.679 27.9395 133.282 24.3452 138.449 24.3452C143.616 24.3452 147.218 27.8915 147.218 33.1631C147.218 38.3867 143.568 41.9331 138.449 41.9331C133.234 41.981 129.679 38.3867 129.679 33.1631ZM142.478 33.1631C142.478 30.6711 140.819 28.6583 138.449 28.6583C136.079 28.6583 134.42 30.6711 134.42 33.1631C134.42 35.6551 136.079 37.6679 138.449 37.6679C140.819 37.7158 142.478 35.703 142.478 33.1631Z" fill="white"/>
<path d="M167.175 45.0001H163.525L163.288 41.6934H152.338L152.101 45.0001H148.451V37.6199H150.868C151.769 35.7988 152.385 33.834 152.717 32.0129C153.096 29.9043 153.191 27.556 153.238 24.6327H164.757V37.6199H167.222V45.0001H167.175ZM156.699 34.457C156.414 35.5592 156.035 36.5656 155.561 37.6199H160.159V28.7062H157.362C157.268 31.0544 157.125 32.8276 156.699 34.457Z" fill="white"/>
<path d="M174.475 24.6327H178.789L184.951 41.6934H180.258L179.405 38.9138H173.954L173.1 41.6934H168.36L174.475 24.6327ZM178.22 35.1279L176.703 30.1918H176.656L175.139 35.1279H178.22Z" fill="white"/>
<path d="M190.924 32.3483L185.947 24.6327H191.351L195.285 31.3899L195.332 31.342V24.6327H199.693V31.342H199.741L203.581 24.6327H209.032L204.102 32.2525L209.364 41.6934H203.912L200.405 34.8404L199.693 35.8947V41.6934H195.332V35.8947L194.621 34.8404L191.161 41.6934H185.852L190.924 32.3483Z" fill="white"/>
</g>
<defs>
<clipPath id="clip0_1_18">
<rect width="209" height="45" fill="white"/>
</clipPath>
</defs>
</svg>
